<svg xmlns="http://www.w3.org/2000/svg" width="115" height="39" viewBox="116 39 115 39"><path fill="#2AA8E0" d="M230.844 45.28c0-3.358-2.72-6.085-6.084-6.085-3.357 0-6.082 2.727-6.082 6.085v13.263c0 3.356 2.725 6.08 6.082 6.08 3.363 0 6.084-2.724 6.084-6.08V45.28"/><path fill="#E23546" d="M224.76 52.46c-3.357 0-6.082 2.722-6.082 6.083v13.263c0 3.357 2.725 6.08 6.082 6.08 3.363 0 6.084-2.723 6.084-6.08V58.543c0-3.36-2.72-6.082-6.084-6.082"/><path fill="#EA614D" d="M197.408 45.28c0-3.358-2.727-6.085-6.084-6.085-1.672 0-3.186.68-4.287 1.77l-.004-.003-13.264 13.26.003.008c-1.107 1.102-1.795 2.626-1.795 4.313 0 3.356 2.72 6.08 6.083 6.08 1.724 0 3.282-.722 4.388-1.875l13.09-13.087c1.15-1.104 1.87-2.656 1.87-4.38"/><path fill="#00AEAC" d="M183.87 56.734c-.118-.382-.272-.746-.46-1.093l-.047-.075c-.18-.315-.38-.617-.61-.893-.048-.06-.1-.11-.15-.165-.08-.09-.155-.183-.243-.267l.018-.018-13.263-13.262-.017.016c-1.1-1.1-2.62-1.782-4.3-1.782-3.36 0-6.085 2.727-6.085 6.085 0 1.86.84 3.52 2.154 4.636l11.11 11.11v10.778c0 3.357 2.722 6.08 6.083 6.08 3.36 0 6.08-2.723 6.08-6.08v-13.26c0-.634-.09-1.24-.27-1.81"/><path fill="#2F5291" d="M148.61 39.195c-.21 0-.416.013-.62.033-.09.01-.178.03-.265.04-.114.016-.228.03-.338.053-.186.04-.366.086-.543.14l-.04.01c-.186.058-.365.124-.542.2l-.018.005c-.162.07-.323.148-.48.233l-.048.024c-.157.08-.306.173-.45.27l-.053.032c-.116.08-.23.166-.34.253-.042.034-.087.062-.13.096-.082.07-.158.146-.24.22-.062.058-.128.11-.188.174l-.014-.015-13.265 13.262.015.017c-1.105 1.1-1.788 2.62-1.788 4.304 0 3.356 2.725 6.08 6.083 6.08 1.83 0 3.466-.808 4.582-2.087l2.6-2.602v11.87c0 3.358 2.722 6.083 6.084 6.083 3.358 0 6.082-2.725 6.082-6.082V45.28c0-3.36-2.724-6.085-6.08-6.085"/><path fill="#F6A125" d="M139.637 54.232l.005-.008-13.258-13.262-.01.007c-.687-.686-1.54-1.208-2.488-1.5l-.028-.01c-.18-.053-.365-.1-.55-.14-.076-.014-.15-.02-.227-.035-.122-.02-.25-.043-.377-.057-.205-.02-.41-.033-.62-.033-3.36 0-6.083 2.727-6.083 6.086v26.525c0 3.357 2.723 6.082 6.083 6.082 3.36 0 6.083-2.725 6.083-6.082V59.947l2.728 2.73c1.114 1.194 2.693 1.946 4.452 1.946 3.36 0 6.084-2.725 6.084-6.082 0-1.683-.685-3.205-1.793-4.308"/><path fill="#45413E" d="M230.844 58.543c0 3.356-2.72 6.08-6.084 6.08-3.357 0-6.082-2.724-6.082-6.08 0-3.36 2.725-6.082 6.082-6.082 3.363 0 6.084 2.722 6.084 6.083"/><path fill="none" d="M116 39.113h115v38.775H116z"/><path fill="#45413E" d="M184.14 58.543c0 3.356-2.72 6.08-6.08 6.08s-6.084-2.724-6.084-6.08c0-3.36 2.723-6.082 6.083-6.082 3.36 0 6.08 2.722 6.08 6.083M201.8 77.874c-2.556.033-5.07-.346-7.474-1.135-2.457-.808-3.795-3.448-2.994-5.903.805-2.458 3.445-3.796 5.9-2.994 2.697.88 5.688.898 8.39.044 2.466-.782 5.1.59 5.874 3.055.78 2.465-.592 5.095-3.055 5.87-2.14.676-4.38 1.034-6.64 1.062"/><path fill="none" d="M116 39.195h114.844v38.693H116z"/></svg>